# xmcd CD database file
#
# Track frame offsets:
#	150
#	11218
#	24945
#	38917
#	52559
#	65635
#	80019
#	94563
#	107187
#	122626
#	133695
#	148119
#	162945
#	209034
#	244001
#	265512
#
# Disc length: 4267 seconds
#
# Revision: 0
# Processed by: cddbd v1.5.2PL0 Copyright (c) Steve Scherf et al.
# Submitted via: CDex 1.70beta2
#
DISCID=da10a910
DTITLE=Webster, Ben - The Warm Moods and BBB and Co
DYEAR=2014
DGENRE=Jazz
TTITLE0=The Sweetheart Of Sigma Chi
TTITLE1=Stella By Starlight
TTITLE2=With Every Breath I Take
TTITLE3=Accent On Youth
TTITLE4=But Beautiful
TTITLE5=Time AFter Time
TTITLE6=Nancy (With The Laughing Face)
TTITLE7=I'm Beginning To See The Light
TTITLE8=It Was So Beautiful
TTITLE9=The Whiffenpoof Song
TTITLE10=It's Easy To Remember
TTITLE11=There Is No You
TTITLE12=Opening Blues
TTITLE13=Lula
TTITLE14=When Lights Are Low
TTITLE15=You Can't Tell The Difference When The Sun Goes Down Blues
EXTD=YEAR: 2014
EXTT0=
EXTT1=
EXTT2=
EXTT3=
EXTT4=
EXTT5=
EXTT6=
EXTT7=
EXTT8=
EXTT9=
EXTT10=
EXTT11=
EXTT12=
EXTT13=
EXTT14=
EXTT15=
PLAYORDER=
